 <svg  version="1.0" xmlns="http://www.w3.org/2000/svg"  width="300.000000pt" height="501.000000pt" viewBox="0 0 300.000000 501.000000"  preserveAspectRatio="xMidYMid meet">  <g transform="translate(0.000000,501.000000) scale(0.100000,-0.100000)" fill="#000" stroke="none"> <path d="M1425 4954 c-79 -11 -161 -31 -220 -54 -231 -90 -397 -196 -565 -361 -315 -308 -515 -687 -581 -1099 -17 -105 -17 -419 0 -515 24 -141 34 -182 68 -290 76 -237 164 -376 368 -581 77 -77 176 -172 220 -209 141 -120 302 -290 358 -377 114 -179 147 -306 147 -574 0 -190 -17 -316 -63 -454 -24 -75 -100 -209 -163 -289 -36 -45 -62 -87 -57 -91 17 -17 363 11 488 39 22 6 74 17 115 26 182 41 374 119 567 232 318 186 584 479 715 788 41 97 49 118 64 172 51 186 64 278 64 453 0 206 -29 325 -123 500 -28 52 -152 239 -166 250 -4 3 -33 37 -65 75 -33 39 -173 192 -312 340 -139 149 -267 288 -284 310 -17 22 -48 60 -68 84 -123 148 -259 393 -305 551 -45 154 -47 174 -47 415 0 244 10 345 51 509 24 98 24 109 0 130 -20 18 -138 29 -206 20z"/> </g> </svg> 